<?xml version="1.0" encoding="UTF-8"?>
<svg xmlns="http://www.w3.org/2000/svg" xmlns:xlink="http://www.w3.org/1999/xlink" width="15px" height="15px" viewBox="0 0 15 15" version="1.1">
<g id="surface1">
<path style=" stroke:none;fill-rule:nonzero;fill:rgb(0%,0%,0%);fill-opacity:1;" d="M 3.890625 0.375 C 3.5625 0.679688 3.515625 1.5 3.515625 5.648438 C 3.515625 10.242188 3.539062 10.570312 3.984375 11.015625 C 4.429688 11.460938 4.757812 11.484375 9.328125 11.484375 C 13.78125 11.484375 14.25 11.4375 14.601562 11.0625 C 15.1875 10.429688 15.1875 0.9375 14.625 0.375 C 14.085938 -0.1875 4.429688 -0.1875 3.890625 0.375 Z M 9.84375 4.242188 C 9.84375 5.132812 9.867188 5.15625 10.734375 5.15625 C 11.226562 5.15625 11.742188 5.273438 11.90625 5.4375 C 12.351562 5.882812 11.765625 6.328125 10.757812 6.328125 C 9.867188 6.328125 9.84375 6.351562 9.84375 7.21875 C 9.84375 7.710938 9.726562 8.226562 9.5625 8.390625 C 9.117188 8.835938 8.671875 8.25 8.671875 7.242188 C 8.671875 6.351562 8.648438 6.328125 7.78125 6.328125 C 7.289062 6.328125 6.773438 6.210938 6.609375 6.046875 C 6.164062 5.601562 6.75 5.15625 7.757812 5.15625 C 8.648438 5.15625 8.671875 5.132812 8.671875 4.265625 C 8.671875 3.773438 8.789062 3.257812 8.953125 3.09375 C 9.398438 2.648438 9.84375 3.234375 9.84375 4.242188 Z M 9.84375 4.242188 "/>
<path style=" stroke:none;fill-rule:nonzero;fill:rgb(0%,0%,0%);fill-opacity:1;" d="M 0.375 3.890625 C -0.1875 4.429688 -0.1875 14.085938 0.375 14.625 C 0.679688 14.953125 1.5 15 5.71875 15 C 11.34375 15 11.484375 14.953125 11.484375 13.289062 L 11.484375 12.421875 L 3.9375 12.421875 L 2.578125 11.0625 L 2.578125 3.515625 L 1.664062 3.515625 C 1.125 3.515625 0.585938 3.679688 0.375 3.890625 Z M 0.375 3.890625 "/>
</g>
</svg>
