<?xml version="1.0" encoding="UTF-8"?>
<svg xmlns="http://www.w3.org/2000/svg" xmlns:xlink="http://www.w3.org/1999/xlink" width="15px" height="15px" viewBox="0 0 15 15" version="1.1">
<g id="surface1">
<path style=" stroke:none;fill-rule:nonzero;fill:rgb(0%,0%,0%);fill-opacity:1;" d="M 5.457031 0.832031 C 5.171875 0.921875 4.929688 1.128906 4.796875 1.398438 C 4.65625 1.675781 4.484375 2.265625 4.484375 2.476562 L 4.484375 2.664062 L 3.414062 2.664062 C 2.40625 2.664062 2.332031 2.667969 2.160156 2.726562 C 1.769531 2.855469 1.519531 3.152344 1.4375 3.566406 C 1.34375 4.035156 1.597656 4.511719 2.050781 4.726562 L 2.242188 4.820312 L 12.757812 4.820312 L 12.949219 4.726562 C 13.738281 4.351562 13.800781 3.292969 13.070312 2.828125 C 12.828125 2.675781 12.730469 2.664062 11.582031 2.664062 L 10.519531 2.664062 L 10.519531 2.476562 C 10.519531 2.328125 10.488281 2.191406 10.398438 1.910156 C 10.195312 1.28125 10.03125 1.050781 9.675781 0.882812 L 9.507812 0.804688 L 7.542969 0.800781 C 5.980469 0.792969 5.554688 0.800781 5.457031 0.832031 Z M 9.296875 1.726562 C 9.359375 1.75 9.390625 1.8125 9.488281 2.113281 C 9.558594 2.3125 9.609375 2.5 9.609375 2.523438 C 9.609375 2.550781 9.582031 2.59375 9.546875 2.617188 C 9.488281 2.660156 9.242188 2.664062 7.5 2.664062 C 5.757812 2.664062 5.515625 2.660156 5.457031 2.617188 C 5.421875 2.59375 5.390625 2.550781 5.390625 2.523438 C 5.390625 2.5 5.445312 2.3125 5.511719 2.113281 C 5.605469 1.835938 5.644531 1.75 5.695312 1.726562 C 5.78125 1.691406 9.207031 1.691406 9.296875 1.726562 Z M 9.296875 1.726562 "/>
<path style=" stroke:none;fill-rule:nonzero;fill:rgb(0%,0%,0%);fill-opacity:1;" d="M 2.433594 5.554688 C 2.433594 5.851562 2.90625 12.660156 2.941406 12.835938 C 3.007812 13.179688 3.136719 13.421875 3.414062 13.695312 C 3.675781 13.960938 3.921875 14.097656 4.246094 14.167969 C 4.53125 14.226562 10.46875 14.226562 10.753906 14.167969 C 11.078125 14.097656 11.324219 13.960938 11.585938 13.695312 C 11.863281 13.421875 11.996094 13.179688 12.058594 12.835938 C 12.09375 12.660156 12.570312 5.847656 12.570312 5.550781 L 12.570312 5.476562 L 2.433594 5.476562 Z M 6.464844 7.082031 C 6.523438 7.105469 6.605469 7.179688 6.644531 7.246094 L 6.722656 7.363281 L 6.734375 8.675781 C 6.738281 9.585938 6.730469 10.027344 6.707031 10.113281 C 6.640625 10.359375 6.375 10.519531 6.144531 10.457031 C 5.996094 10.414062 5.839844 10.269531 5.800781 10.140625 C 5.777344 10.070312 5.773438 9.582031 5.777344 8.6875 L 5.785156 7.339844 L 5.855469 7.242188 C 6 7.039062 6.242188 6.976562 6.464844 7.082031 Z M 8.964844 7.074219 C 9.011719 7.097656 9.089844 7.167969 9.132812 7.226562 L 9.214844 7.332031 L 9.222656 8.667969 C 9.230469 9.402344 9.222656 10.046875 9.214844 10.101562 C 9.1875 10.246094 9.019531 10.414062 8.867188 10.457031 C 8.617188 10.515625 8.363281 10.363281 8.292969 10.113281 C 8.269531 10.027344 8.261719 9.585938 8.269531 8.675781 L 8.277344 7.363281 L 8.351562 7.246094 C 8.398438 7.179688 8.476562 7.105469 8.527344 7.082031 C 8.652344 7.019531 8.855469 7.015625 8.964844 7.074219 Z M 8.964844 7.074219 "/>
</g>
</svg>
