<?xml version="1.0" encoding="UTF-8"?>
<svg xmlns="http://www.w3.org/2000/svg" xmlns:xlink="http://www.w3.org/1999/xlink" width="15px" height="15px" viewBox="0 0 15 15" version="1.1">
<g id="surface1">
<path style=" stroke:none;fill-rule:nonzero;fill:rgb(0%,0%,0%);fill-opacity:1;" d="M 6.855469 1.292969 C 5.78125 1.398438 4.679688 1.835938 3.765625 2.511719 C 3.40625 2.777344 2.78125 3.40625 2.507812 3.777344 C 1.8125 4.71875 1.402344 5.773438 1.292969 6.925781 C 1.164062 8.230469 1.496094 9.65625 2.179688 10.78125 C 2.484375 11.277344 2.699219 11.546875 3.175781 12.035156 L 3.640625 12.507812 L 2.710938 12.507812 C 1.671875 12.507812 1.601562 12.519531 1.4375 12.683594 C 1.125 12.996094 1.253906 13.582031 1.660156 13.703125 C 1.75 13.730469 2.21875 13.738281 3.464844 13.738281 C 5.128906 13.738281 5.15625 13.738281 5.265625 13.679688 C 5.425781 13.589844 5.46875 13.542969 5.550781 13.378906 L 5.625 13.230469 L 5.625 11.613281 C 5.625 10.519531 5.613281 9.941406 5.59375 9.835938 C 5.511719 9.453125 5.070312 9.273438 4.6875 9.460938 C 4.558594 9.527344 4.496094 9.59375 4.4375 9.734375 C 4.402344 9.824219 4.394531 9.988281 4.394531 10.664062 C 4.394531 11.113281 4.382812 11.484375 4.371094 11.484375 C 4.347656 11.484375 3.777344 10.867188 3.558594 10.605469 C 2.671875 9.542969 2.300781 7.945312 2.597656 6.480469 C 2.714844 5.878906 3.042969 5.136719 3.421875 4.597656 C 3.675781 4.246094 4.242188 3.671875 4.601562 3.421875 C 4.933594 3.183594 5.539062 2.875 5.902344 2.757812 C 6.386719 2.59375 7 2.488281 7.433594 2.488281 C 7.675781 2.488281 7.820312 2.441406 7.941406 2.316406 C 8.253906 2.007812 8.121094 1.402344 7.71875 1.292969 C 7.589844 1.257812 7.222656 1.257812 6.855469 1.292969 Z M 6.855469 1.292969 "/>
<path style=" stroke:none;fill-rule:nonzero;fill:rgb(0%,0%,0%);fill-opacity:1;" d="M 9.804688 1.28125 C 9.792969 1.296875 9.734375 1.328125 9.667969 1.347656 C 9.601562 1.367188 9.511719 1.433594 9.460938 1.484375 L 9.375 1.585938 L 9.375 3.320312 C 9.375 5.28125 9.375 5.273438 9.578125 5.457031 C 9.875 5.726562 10.390625 5.640625 10.550781 5.289062 C 10.601562 5.183594 10.605469 5.089844 10.605469 4.339844 C 10.605469 3.886719 10.613281 3.515625 10.628906 3.515625 C 10.664062 3.515625 11.292969 4.222656 11.496094 4.492188 C 11.980469 5.132812 12.316406 5.941406 12.457031 6.796875 C 12.503906 7.082031 12.503906 7.917969 12.453125 8.21875 C 12.210938 9.742188 11.351562 11.015625 10.027344 11.8125 C 9.339844 12.226562 8.59375 12.445312 7.675781 12.503906 C 7.414062 12.519531 7.25 12.542969 7.191406 12.578125 C 6.851562 12.753906 6.78125 13.289062 7.058594 13.566406 C 7.230469 13.742188 7.453125 13.773438 8.089844 13.710938 C 9.984375 13.523438 11.644531 12.515625 12.722656 10.902344 C 12.933594 10.59375 13.265625 9.921875 13.386719 9.566406 C 13.761719 8.488281 13.835938 7.351562 13.605469 6.214844 C 13.425781 5.304688 12.984375 4.359375 12.371094 3.550781 C 12.304688 3.460938 12.078125 3.203125 11.863281 2.96875 C 11.644531 2.734375 11.46875 2.53125 11.460938 2.515625 C 11.457031 2.5 11.820312 2.488281 12.339844 2.488281 C 12.898438 2.488281 13.273438 2.476562 13.34375 2.457031 C 13.496094 2.417969 13.667969 2.242188 13.707031 2.09375 C 13.8125 1.726562 13.648438 1.375 13.335938 1.289062 C 13.203125 1.253906 9.828125 1.246094 9.804688 1.28125 Z M 9.804688 1.28125 "/>
</g>
</svg>
