<?xml version="1.0" encoding="UTF-8"?>
<svg xmlns="http://www.w3.org/2000/svg" xmlns:xlink="http://www.w3.org/1999/xlink" width="162px" height="72px" viewBox="0 0 162 72" version="1.1">
<g id="surface1">
<path style=" stroke:none;fill-rule:nonzero;fill:rgb(0%,0%,0%);fill-opacity:1;" d="M 38.792969 30.5 C 38.4375 31.628906 37.53125 32.609375 34.71875 34.847656 C 32.632812 36.511719 31.710938 37.363281 31.039062 38.195312 C 30.3125 39.105469 30.152344 39.570312 30.226562 40.535156 C 30.289062 41.480469 30.65625 42.191406 31.503906 43.003906 C 31.957031 43.453125 33.503906 44.425781 33.75 44.425781 C 33.8125 44.425781 33.875 44.339844 33.875 44.222656 C 33.875 43.964844 34.140625 43.410156 34.523438 42.863281 C 35 42.167969 35.910156 41.335938 38.128906 39.550781 C 41.101562 37.144531 42.082031 36.105469 42.472656 34.933594 C 42.796875 33.949219 42.355469 32.566406 41.394531 31.621094 C 40.90625 31.132812 39.847656 30.40625 39.285156 30.175781 L 38.941406 30.03125 Z M 38.792969 30.5 "/>
<path style=" stroke:none;fill-rule:nonzero;fill:rgb(0%,0%,0%);fill-opacity:1;" d="M 55.707031 35.011719 C 54.320312 35.246094 53.535156 35.957031 53.863281 36.691406 C 54.109375 37.230469 54.542969 37.402344 57.414062 38.160156 C 58.160156 38.363281 58.539062 38.621094 58.628906 39.015625 C 58.714844 39.398438 58.417969 39.691406 57.769531 39.878906 C 56.648438 40.199219 55.265625 40.003906 54.664062 39.441406 C 54.464844 39.269531 54.304688 39.117188 54.285156 39.105469 C 54.257812 39.082031 53.535156 39.226562 53.410156 39.285156 C 53.3125 39.320312 53.890625 39.867188 54.207031 40.039062 C 55.066406 40.515625 56.585938 40.722656 57.734375 40.535156 C 58.824219 40.355469 59.757812 39.6875 59.769531 39.082031 C 59.769531 38.347656 58.945312 37.894531 56.761719 37.402344 C 55.71875 37.175781 55.238281 36.972656 55.03125 36.675781 C 54.773438 36.316406 54.824219 36.101562 55.203125 35.855469 C 56.097656 35.28125 57.851562 35.472656 58.601562 36.238281 C 58.714844 36.351562 58.75 36.351562 59.128906 36.214844 C 59.546875 36.066406 59.546875 36.066406 59.335938 35.871094 C 58.554688 35.152344 57.070312 34.796875 55.707031 35.011719 Z M 55.707031 35.011719 "/>
<path style=" stroke:none;fill-rule:nonzero;fill:rgb(0%,0%,0%);fill-opacity:1;" d="M 126.921875 34.992188 C 125.878906 35.121094 125.207031 35.480469 124.949219 36.050781 C 124.640625 36.714844 125.265625 37.308594 126.628906 37.675781 C 127.011719 37.777344 127.761719 37.972656 128.273438 38.109375 C 129.292969 38.382812 129.589844 38.570312 129.6875 39.011719 C 129.769531 39.40625 129.464844 39.722656 128.828125 39.894531 C 127.699219 40.191406 126.3125 39.988281 125.699219 39.425781 C 125.523438 39.269531 125.363281 39.117188 125.339844 39.105469 C 125.257812 39.023438 124.566406 39.277344 124.566406 39.382812 C 124.566406 39.613281 125.355469 40.132812 126.027344 40.347656 C 126.8125 40.59375 128.054688 40.679688 128.8125 40.535156 C 130.828125 40.148438 131.476562 38.894531 130.078125 38.109375 C 129.6875 37.894531 128.386719 37.503906 127.34375 37.289062 C 125.917969 36.996094 125.476562 36.101562 126.558594 35.710938 C 127.503906 35.371094 128.503906 35.472656 129.316406 35.980469 C 129.820312 36.292969 129.855469 36.300781 130.210938 36.214844 C 130.644531 36.113281 130.632812 36.121094 130.410156 35.863281 C 129.832031 35.222656 128.273438 34.832031 126.921875 34.992188 Z M 126.921875 34.992188 "/>
<path style=" stroke:none;fill-rule:nonzero;fill:rgb(0%,0%,0%);fill-opacity:1;" d="M 61.121094 37.800781 L 61.121094 40.535156 L 62.101562 40.535156 L 62.101562 38.519531 L 63.546875 38.519531 C 65.632812 38.511719 66.515625 38.277344 67.082031 37.554688 C 67.699219 36.785156 67.363281 35.921875 66.296875 35.445312 C 65.5625 35.113281 65.109375 35.066406 62.996094 35.066406 L 61.121094 35.066406 Z M 65.5 35.828125 C 66.0625 36.074219 66.296875 36.402344 66.25 36.914062 C 66.160156 37.707031 65.5 37.941406 63.339844 37.941406 L 62.101562 37.941406 L 62.101562 35.625 L 63.621094 35.648438 C 64.933594 35.667969 65.207031 35.699219 65.5 35.828125 Z M 65.5 35.828125 "/>
<path style=" stroke:none;fill-rule:nonzero;fill:rgb(0%,0%,0%);fill-opacity:1;" d="M 68.726562 37.800781 L 68.726562 40.535156 L 74.003906 40.535156 L 74.003906 39.886719 L 69.832031 39.886719 L 69.832031 35.066406 L 68.726562 35.066406 Z M 68.726562 37.800781 "/>
<path style=" stroke:none;fill-rule:nonzero;fill:rgb(0%,0%,0%);fill-opacity:1;" d="M 75.355469 37.800781 L 75.355469 40.535156 L 76.457031 40.535156 L 76.457031 35.066406 L 75.355469 35.066406 Z M 75.355469 37.800781 "/>
<path style=" stroke:none;fill-rule:nonzero;fill:rgb(0%,0%,0%);fill-opacity:1;" d="M 77.808594 35.351562 L 77.808594 35.640625 L 80.386719 35.640625 L 80.386719 40.535156 L 81.488281 40.535156 L 81.488281 35.640625 L 84.066406 35.640625 L 84.066406 35.066406 L 77.808594 35.066406 Z M 77.808594 35.351562 "/>
<path style=" stroke:none;fill-rule:nonzero;fill:rgb(0%,0%,0%);fill-opacity:1;" d="M 85.441406 37.777344 L 85.480469 40.5 L 88.214844 40.519531 L 90.941406 40.535156 L 90.941406 39.886719 L 86.511719 39.886719 L 86.546875 38.964844 L 86.582031 38.050781 L 88.277344 38.03125 L 89.972656 38.007812 L 89.898438 37.476562 L 88.214844 37.453125 L 86.523438 37.433594 L 86.523438 35.640625 L 90.816406 35.640625 L 90.816406 35.066406 L 85.417969 35.066406 Z M 85.441406 37.777344 "/>
<path style=" stroke:none;fill-rule:nonzero;fill:rgb(0%,0%,0%);fill-opacity:1;" d="M 92.132812 35.152344 C 92.941406 35.753906 95.113281 37.691406 95.066406 37.761719 C 95.027344 37.820312 94.316406 38.441406 93.46875 39.152344 C 92.621094 39.867188 91.921875 40.464844 91.921875 40.492188 C 91.921875 40.515625 92.179688 40.535156 92.511719 40.535156 L 93.089844 40.535156 L 94.378906 39.441406 C 95.089844 38.84375 95.726562 38.339844 95.785156 38.324219 C 95.863281 38.316406 96.484375 38.792969 97.1875 39.390625 C 97.886719 39.988281 98.527344 40.492188 98.613281 40.507812 C 98.695312 40.527344 99.003906 40.535156 99.285156 40.519531 L 99.789062 40.5 L 98.128906 39.105469 C 96.855469 38.035156 96.5 37.683594 96.589844 37.589844 C 96.648438 37.527344 97.332031 36.941406 98.109375 36.289062 L 99.519531 35.097656 L 99.03125 35.078125 C 98.746094 35.066406 98.453125 35.070312 98.378906 35.085938 C 98.289062 35.105469 97.6875 35.582031 97.03125 36.144531 L 95.828125 37.167969 L 95.40625 36.820312 C 95.175781 36.628906 94.609375 36.160156 94.15625 35.769531 L 93.335938 35.066406 L 92.671875 35.066406 C 92.167969 35.066406 92.046875 35.085938 92.132812 35.152344 Z M 92.132812 35.152344 "/>
<path style=" stroke:none;fill-rule:nonzero;fill:rgb(0%,0%,0%);fill-opacity:1;" d="M 101.003906 37.800781 L 101.003906 40.542969 L 101.53125 40.519531 L 102.046875 40.5 L 102.082031 39.503906 L 102.125 38.519531 L 103.433594 38.519531 C 105.386719 38.519531 106.085938 38.355469 106.820312 37.742188 C 107.128906 37.488281 107.203125 37.347656 107.238281 36.933594 C 107.300781 36.351562 107.128906 36.007812 106.609375 35.667969 C 105.875 35.164062 105.496094 35.105469 103.125 35.078125 L 101.003906 35.050781 Z M 105.386719 35.828125 C 105.9375 36.066406 106.195312 36.394531 106.195312 36.839844 C 106.195312 37.269531 106 37.488281 105.371094 37.757812 C 105.089844 37.886719 104.820312 37.910156 103.566406 37.929688 L 102.109375 37.957031 L 102.109375 35.625 L 103.566406 35.648438 C 104.832031 35.667969 105.089844 35.699219 105.386719 35.828125 Z M 105.386719 35.828125 "/>
<path style=" stroke:none;fill-rule:nonzero;fill:rgb(0%,0%,0%);fill-opacity:1;" d="M 108.613281 37.800781 L 108.613281 40.535156 L 114.136719 40.535156 L 114.136719 39.886719 L 109.71875 39.886719 L 109.71875 38.015625 L 113.03125 38.015625 L 113.03125 37.441406 L 109.71875 37.441406 L 109.71875 35.640625 L 114.011719 35.640625 L 114.011719 35.066406 L 108.613281 35.066406 Z M 108.613281 37.800781 "/>
<path style=" stroke:none;fill-rule:nonzero;fill:rgb(0%,0%,0%);fill-opacity:1;" d="M 115.609375 37.808594 L 115.609375 40.542969 L 116.140625 40.519531 L 116.652344 40.5 L 116.777344 36.265625 L 119.582031 38.402344 C 122.285156 40.457031 122.421875 40.542969 122.773438 40.519531 L 123.15625 40.5 L 123.195312 37.777344 L 123.21875 35.066406 L 122.113281 35.066406 L 122.089844 37.1875 L 122.050781 39.320312 L 119.253906 37.1875 C 116.539062 35.128906 116.441406 35.066406 116.035156 35.066406 L 115.609375 35.066406 Z M 115.609375 37.808594 "/>
<path style=" stroke:none;fill-rule:nonzero;fill:rgb(0%,0%,0%);fill-opacity:1;" d="M 132.175781 37.800781 L 132.175781 40.535156 L 137.699219 40.535156 L 137.699219 39.886719 L 133.28125 39.886719 L 133.28125 38.015625 L 136.59375 38.015625 L 136.59375 37.441406 L 133.28125 37.441406 L 133.28125 35.640625 L 137.578125 35.640625 L 137.578125 35.066406 L 132.175781 35.066406 Z M 132.175781 37.800781 "/>
<path style=" stroke:none;fill-rule:nonzero;fill:rgb(0%,0%,0%);fill-opacity:1;" d="M 45.417969 36.265625 C 45.027344 37.175781 43.898438 38.289062 41.039062 40.578125 C 38.191406 42.863281 37.136719 44.042969 37.125 44.925781 L 37.125 45.316406 L 37.679688 45.382812 C 38.5 45.46875 40.328125 45.386719 41.296875 45.207031 C 45.113281 44.527344 47.617188 42.601562 47.617188 40.355469 C 47.617188 39.59375 47.484375 39.105469 47.042969 38.195312 C 46.769531 37.648438 45.726562 36.019531 45.605469 35.941406 C 45.582031 35.933594 45.496094 36.078125 45.417969 36.265625 Z M 45.417969 36.265625 "/>
</g>
</svg>
